<svg xmlns="http://www.w3.org/2000/svg" viewBox="0 0 525.06 467.91"><g id="Layer_2" data-name="Layer 2"><g id="Layer_1-2" data-name="Layer 1"><g id="fliplogo"><path fill='#000000' d="M488.93,211.73c.35,2.15.74,3.72.85,5.31,8,121.51-74,221.81-182.57,245-74.45,15.92-141.77-.9-200.86-49-30.78-25-52.2-57.06-66.72-93.8-.71-1.77-.12-4.09,0-6.15a5.7,5.7,0,0,1,.76-1.82c2.54-5.61,3.77-12.69,8-16.41,4-3.57,11.13-3.7,16.9-5.27,12.21-3.33,24.46-6.5,36.62-10,4.57-1.31,6.86-.78,8.86,4.33,23.15,59.31,66.45,94,129.6,101.46,82.09,9.73,157.38-49.54,168.39-131.18.74-5.47,2.78-7.8,8-9.2a227.23,227.23,0,0,0,63.79-27.79C483.15,215.59,485.75,213.83,488.93,211.73Z"/><path class="cls-1" d="M51.09,204,26,251.13l-1.73-.46a213.45,213.45,0,0,1,7.46-79.87C49.65,107.81,87.53,59.94,145,28.67c114.48-62.3,249.37-17.44,308.91,80.44-6.68,2.53-13.25,5.19-19.93,7.53-17.59,6.15-35.26,12.07-52.83,18.29-4.17,1.48-6.86.81-10-2.55-33.68-36.54-75.58-53.85-125.08-50.85-46.53,2.81-83.88,23.86-112.27,60.77-4.26,5.53-8,11.48-12.31,16.95a12.33,12.33,0,0,1-6.18,4.26c-25.22,6-50.5,11.84-75.78,17.65-5.15,1.18-7.16,6.53-3.35,11.39,2.79,3.56,6.84,6.17,10.43,9.07A28.19,28.19,0,0,0,51.09,204Z"/><path class="cls-1" d="M403.91,154.06c-11.21-.74-22-.65-30-11.38,4.94-1.35,9.09-2.2,13.06-3.6,18.51-6.51,36.91-13.37,55.48-19.73,15.67-5.37,31.62-9.53,48.47-6.44,20.76,3.82,36.19,22.45,33.93,41.62-1.52,12.85-8.07,23.49-16.6,32.92-19.14,21.14-43.53,34.23-69.48,44.78-14.57,5.93-29.45,10.59-45.58,9.29-1.33-.11-3.58,2-4.17,3.62q-9.87,25.88-19.29,51.92c-2.62,7.25-5.35,8.16-11.25,2.91-7.19-6.38-7.75-14.86-6.29-23.5,3.24-19.18,10.09-37.31,18.19-54.82,10.13-21.88,21.37-43.25,32.12-64.83C402.85,156.1,403.23,155.39,403.91,154.06ZM398.2,224a20.13,20.13,0,0,0,3.2-.26c25.45-7.75,49.75-18,71-34.38,13.81-10.65,26.45-22.52,31.49-40.09a19,19,0,0,0,.25-10.12c-3.17-10.47-10.64-14.2-22.51-10.61-11.59,3.49-22.87,8-34.22,12.23-6.49,2.43-12.84,5.25-19.25,7.89,1.66,9-.56,17-4.11,24.6s-7.63,15.14-11.48,22.7Z"/><path class="cls-1" d="M58.57,200.72c-8-2.65-15.83-5-19.64-14.27,6.89-1.22,13.1-2,19.17-3.43,21.53-5,43-10.35,64.53-15.4,11.83-2.77,23.79-5.9,36-2.61,4.68,1.27,9,4.07,13.28,6.52,1.17.67,1.6,2.64,2.36,4a20.17,20.17,0,0,1-3.86,1.87c-25.16,6.28-50.35,12.46-75.5,18.81-1.89.48-4.26,1.72-5.11,3.3-11.56,21.51-22.89,43.15-35,66.23,3.22-.73,4.86-1.08,6.5-1.46,12.47-2.9,24.83-6.5,37.87-5.67,6.57.42,12.37,2.63,17,7.33a6.33,6.33,0,0,1,1.84,4.24c0,.72-2.29,1.56-3.66,1.91-22,5.67-44.12,11.15-66.1,17A10.75,10.75,0,0,0,42,294.69c-7.9,18.87-15.47,37.88-23,56.89-2.1,5.29-3.75,6.11-9,3.75C2.72,352-.3,345.76,0,338.37a73.89,73.89,0,0,1,3.35-19.06c10.3-32.13,25.37-62.17,41.21-91.84C49.27,218.68,53.82,209.82,58.57,200.72Z"/><path class="cls-1" d="M162.15,315c13.93-4.07,26.91-8.12,40-11.63,12.52-3.36,25.08-7.05,38.32-5.55,7.49.84,14.07,3.43,18.83,10.49-1.6.76-2.68,1.61-3.87,1.81-27.85,4.72-54.48,13.81-81.23,22.49-15.2,4.93-24.29,2.36-34.81-10-3.68-4.33-3.84-9.28-2-14.12,6.24-16.84,12.22-33.81,19.34-50.29,14.27-33,29.92-65.37,48.34-96.31,1-1.72,2.07-3.42,3.2-5.06,3.77-5.5,7.62-5.68,12-.59,5.3,6.12,6,13.49,4.13,20.74a126.88,126.88,0,0,1-8,20.91c-16.94,36.35-34.11,72.6-51.15,108.9C164.18,309.13,163.4,311.68,162.15,315Z"/><path class="cls-1" d="M365,149.19c-2.72,7.68-5,16.23-8.67,24.1-16.72,35.51-34,70.74-50.74,106.24-4.81,10.21-8.63,20.91-12.51,31.52-1.55,4.22-3.54,4.5-7.06,2.62C278.91,309.87,274,301,276.2,292a334.15,334.15,0,0,1,12.6-41.42,701.26,701.26,0,0,1,57.26-115.13c4.81-7.77,10.37-7.76,14.72.33C362.76,139.46,363.41,143.87,365,149.19Z"/></g></g></g></svg>